<mxfile host="app.diagrams.net" agent="Mozilla/5.0 (Windows NT 10.0; Win64; x64; rv:140.0) Gecko/20100101 Firefox/140.0" version="28.1.1">
  <diagram name="Page-1" id="mPRYtnHCe1ainTHo_fgo">
    <mxGraphModel dx="1973" dy="610" grid="1" gridSize="10" guides="1" tooltips="1" connect="1" arrows="0" fold="1" page="1" pageScale="1" pageWidth="850" pageHeight="1100" math="0" shadow="0">
      <root>
        <mxCell id="0" />
        <mxCell id="1" parent="0" />
        <mxCell id="MufeMbEMQpiEw7InIswr-2" value="`" style="points=[[0,0],[0.25,0],[0.5,0],[0.75,0],[1,0],[1,0.25],[1,0.5],[1,0.75],[1,1],[0.75,1],[0.5,1],[0.25,1],[0,1],[0,0.75],[0,0.5],[0,0.25]];outlineConnect=0;gradientColor=none;html=1;whiteSpace=wrap;fontSize=12;fontStyle=0;container=1;pointerEvents=0;collapsible=0;recursiveResize=0;shape=mxgraph.aws4.group;grIcon=mxgraph.aws4.group_aws_cloud_alt;strokeColor=#232F3E;fillColor=none;verticalAlign=top;align=left;spacingLeft=30;fontColor=#232F3E;dashed=0;" parent="1" vertex="1">
          <mxGeometry x="-590" y="420" width="1440" height="860" as="geometry" />
        </mxCell>
        <mxCell id="zAbW5wVqno82e7CFk5vz-36" value="" style="rounded=1;whiteSpace=wrap;html=1;dashed=1;" vertex="1" parent="MufeMbEMQpiEw7InIswr-2">
          <mxGeometry x="858" y="660" width="543" height="120" as="geometry" />
        </mxCell>
        <mxCell id="zAbW5wVqno82e7CFk5vz-28" value="" style="rounded=1;whiteSpace=wrap;html=1;dashed=1;" vertex="1" parent="MufeMbEMQpiEw7InIswr-2">
          <mxGeometry x="852.66" y="523" width="543" height="117" as="geometry" />
        </mxCell>
        <mxCell id="zAbW5wVqno82e7CFk5vz-27" value="" style="rounded=1;whiteSpace=wrap;html=1;dashed=1;" vertex="1" parent="MufeMbEMQpiEw7InIswr-2">
          <mxGeometry x="852.66" y="390" width="543" height="117" as="geometry" />
        </mxCell>
        <mxCell id="zAbW5wVqno82e7CFk5vz-26" value="" style="rounded=1;whiteSpace=wrap;html=1;dashed=1;" vertex="1" parent="MufeMbEMQpiEw7InIswr-2">
          <mxGeometry x="857" y="253" width="543" height="117" as="geometry" />
        </mxCell>
        <mxCell id="MufeMbEMQpiEw7InIswr-4" value="" style="sketch=0;points=[[0,0,0],[0.25,0,0],[0.5,0,0],[0.75,0,0],[1,0,0],[0,1,0],[0.25,1,0],[0.5,1,0],[0.75,1,0],[1,1,0],[0,0.25,0],[0,0.5,0],[0,0.75,0],[1,0.25,0],[1,0.5,0],[1,0.75,0]];outlineConnect=0;fontColor=#232F3E;fillColor=#01A88D;strokeColor=#ffffff;dashed=0;verticalLabelPosition=bottom;verticalAlign=top;align=center;html=1;fontSize=12;fontStyle=0;aspect=fixed;shape=mxgraph.aws4.resourceIcon;resIcon=mxgraph.aws4.bedrock;" parent="MufeMbEMQpiEw7InIswr-2" vertex="1">
          <mxGeometry x="737" y="374" width="78" height="78" as="geometry" />
        </mxCell>
        <mxCell id="MufeMbEMQpiEw7InIswr-6" value="" style="rounded=1;whiteSpace=wrap;html=1;dashed=1;" parent="MufeMbEMQpiEw7InIswr-2" vertex="1">
          <mxGeometry x="858" y="100" width="543" height="120" as="geometry" />
        </mxCell>
        <mxCell id="MufeMbEMQpiEw7InIswr-33" value="" style="endArrow=classic;startArrow=classic;html=1;rounded=0;exitX=0.5;exitY=0;exitDx=0;exitDy=0;exitPerimeter=0;entryX=0;entryY=0.25;entryDx=0;entryDy=0;" parent="MufeMbEMQpiEw7InIswr-2" source="MufeMbEMQpiEw7InIswr-4" edge="1">
          <mxGeometry width="50" height="50" relative="1" as="geometry">
            <mxPoint x="776" y="409" as="sourcePoint" />
            <mxPoint x="857" y="115" as="targetPoint" />
            <Array as="points">
              <mxPoint x="777" y="115" />
            </Array>
          </mxGeometry>
        </mxCell>
        <mxCell id="MufeMbEMQpiEw7InIswr-36" value="task" style="text;strokeColor=none;align=center;fillColor=none;html=1;verticalAlign=middle;whiteSpace=wrap;rounded=0;" parent="MufeMbEMQpiEw7InIswr-2" vertex="1">
          <mxGeometry x="790" y="141.75" width="60" height="30" as="geometry" />
        </mxCell>
        <mxCell id="MufeMbEMQpiEw7InIswr-39" value="" style="rounded=1;whiteSpace=wrap;html=1;" parent="MufeMbEMQpiEw7InIswr-2" vertex="1">
          <mxGeometry x="416" y="333" width="274" height="160" as="geometry" />
        </mxCell>
        <mxCell id="MufeMbEMQpiEw7InIswr-40" value="" style="sketch=0;points=[[0,0,0],[0.25,0,0],[0.5,0,0],[0.75,0,0],[1,0,0],[0,1,0],[0.25,1,0],[0.5,1,0],[0.75,1,0],[1,1,0],[0,0.25,0],[0,0.5,0],[0,0.75,0],[1,0.25,0],[1,0.5,0],[1,0.75,0]];outlineConnect=0;fontColor=#232F3E;fillColor=#ED7100;strokeColor=#ffffff;dashed=0;verticalLabelPosition=bottom;verticalAlign=top;align=center;html=1;fontSize=12;fontStyle=0;aspect=fixed;shape=mxgraph.aws4.resourceIcon;resIcon=mxgraph.aws4.lambda;" parent="MufeMbEMQpiEw7InIswr-2" vertex="1">
          <mxGeometry x="426" y="378.5" width="49" height="49" as="geometry" />
        </mxCell>
        <mxCell id="MufeMbEMQpiEw7InIswr-41" value="" style="sketch=0;points=[[0,0,0],[0.25,0,0],[0.5,0,0],[0.75,0,0],[1,0,0],[0,1,0],[0.25,1,0],[0.5,1,0],[0.75,1,0],[1,1,0],[0,0.25,0],[0,0.5,0],[0,0.75,0],[1,0.25,0],[1,0.5,0],[1,0.75,0]];outlineConnect=0;fontColor=#232F3E;fillColor=#ED7100;strokeColor=#ffffff;dashed=0;verticalLabelPosition=bottom;verticalAlign=top;align=center;html=1;fontSize=12;fontStyle=0;aspect=fixed;shape=mxgraph.aws4.resourceIcon;resIcon=mxgraph.aws4.fargate;" parent="MufeMbEMQpiEw7InIswr-2" vertex="1">
          <mxGeometry x="492" y="378.5" width="49" height="49" as="geometry" />
        </mxCell>
        <mxCell id="MufeMbEMQpiEw7InIswr-42" value="" style="sketch=0;points=[[0,0,0],[0.25,0,0],[0.5,0,0],[0.75,0,0],[1,0,0],[0,1,0],[0.25,1,0],[0.5,1,0],[0.75,1,0],[1,1,0],[0,0.25,0],[0,0.5,0],[0,0.75,0],[1,0.25,0],[1,0.5,0],[1,0.75,0]];outlineConnect=0;fontColor=#232F3E;fillColor=#ED7100;strokeColor=#ffffff;dashed=0;verticalLabelPosition=bottom;verticalAlign=top;align=center;html=1;fontSize=12;fontStyle=0;aspect=fixed;shape=mxgraph.aws4.resourceIcon;resIcon=mxgraph.aws4.ec2;" parent="MufeMbEMQpiEw7InIswr-2" vertex="1">
          <mxGeometry x="556" y="378.5" width="51.25" height="51.25" as="geometry" />
        </mxCell>
        <mxCell id="MufeMbEMQpiEw7InIswr-44" value="" style="sketch=0;points=[[0,0,0],[0.25,0,0],[0.5,0,0],[0.75,0,0],[1,0,0],[0,1,0],[0.25,1,0],[0.5,1,0],[0.75,1,0],[1,1,0],[0,0.25,0],[0,0.5,0],[0,0.75,0],[1,0.25,0],[1,0.5,0],[1,0.75,0]];outlineConnect=0;fontColor=#232F3E;fillColor=#ED7100;strokeColor=#ffffff;dashed=0;verticalLabelPosition=bottom;verticalAlign=top;align=center;html=1;fontSize=12;fontStyle=0;aspect=fixed;shape=mxgraph.aws4.resourceIcon;resIcon=mxgraph.aws4.eks_cloud;" parent="MufeMbEMQpiEw7InIswr-2" vertex="1">
          <mxGeometry x="626" y="379.13" width="50" height="50" as="geometry" />
        </mxCell>
        <mxCell id="MufeMbEMQpiEw7InIswr-45" value="" style="sketch=0;points=[[0,0,0],[0.25,0,0],[0.5,0,0],[0.75,0,0],[1,0,0],[0,1,0],[0.25,1,0],[0.5,1,0],[0.75,1,0],[1,1,0],[0,0.25,0],[0,0.5,0],[0,0.75,0],[1,0.25,0],[1,0.5,0],[1,0.75,0]];outlineConnect=0;fontColor=#232F3E;fillColor=#8C4FFF;strokeColor=#ffffff;dashed=0;verticalLabelPosition=bottom;verticalAlign=top;align=center;html=1;fontSize=12;fontStyle=0;aspect=fixed;shape=mxgraph.aws4.resourceIcon;resIcon=mxgraph.aws4.api_gateway;" parent="MufeMbEMQpiEw7InIswr-2" vertex="1">
          <mxGeometry x="299" y="374.13" width="80" height="80" as="geometry" />
        </mxCell>
        <mxCell id="MufeMbEMQpiEw7InIswr-46" value="" style="rounded=1;whiteSpace=wrap;html=1;dashed=1;" parent="MufeMbEMQpiEw7InIswr-2" vertex="1">
          <mxGeometry x="140" y="253" width="120" height="320" as="geometry" />
        </mxCell>
        <mxCell id="MufeMbEMQpiEw7InIswr-47" value="" style="sketch=0;points=[[0,0,0],[0.25,0,0],[0.5,0,0],[0.75,0,0],[1,0,0],[0,1,0],[0.25,1,0],[0.5,1,0],[0.75,1,0],[1,1,0],[0,0.25,0],[0,0.5,0],[0,0.75,0],[1,0.25,0],[1,0.5,0],[1,0.75,0]];outlineConnect=0;fontColor=#232F3E;fillColor=#DD344C;strokeColor=#ffffff;dashed=0;verticalLabelPosition=bottom;verticalAlign=top;align=center;html=1;fontSize=12;fontStyle=0;aspect=fixed;shape=mxgraph.aws4.resourceIcon;resIcon=mxgraph.aws4.amplify;" parent="MufeMbEMQpiEw7InIswr-2" vertex="1">
          <mxGeometry x="21" y="376.13" width="78" height="78" as="geometry" />
        </mxCell>
        <mxCell id="MufeMbEMQpiEw7InIswr-48" value="" style="sketch=0;points=[[0,0,0],[0.25,0,0],[0.5,0,0],[0.75,0,0],[1,0,0],[0,1,0],[0.25,1,0],[0.5,1,0],[0.75,1,0],[1,1,0],[0,0.25,0],[0,0.5,0],[0,0.75,0],[1,0.25,0],[1,0.5,0],[1,0.75,0]];outlineConnect=0;fontColor=#232F3E;fillColor=#8C4FFF;strokeColor=#ffffff;dashed=0;verticalLabelPosition=bottom;verticalAlign=top;align=center;html=1;fontSize=12;fontStyle=0;aspect=fixed;shape=mxgraph.aws4.resourceIcon;resIcon=mxgraph.aws4.cloudfront;" parent="MufeMbEMQpiEw7InIswr-2" vertex="1">
          <mxGeometry x="159" y="375.13" width="78" height="78" as="geometry" />
        </mxCell>
        <mxCell id="MufeMbEMQpiEw7InIswr-49" value="" style="sketch=0;points=[[0,0,0],[0.25,0,0],[0.5,0,0],[0.75,0,0],[1,0,0],[0,1,0],[0.25,1,0],[0.5,1,0],[0.75,1,0],[1,1,0],[0,0.25,0],[0,0.5,0],[0,0.75,0],[1,0.25,0],[1,0.5,0],[1,0.75,0]];outlineConnect=0;fontColor=#232F3E;fillColor=#7AA116;strokeColor=#ffffff;dashed=0;verticalLabelPosition=bottom;verticalAlign=top;align=center;html=1;fontSize=12;fontStyle=0;aspect=fixed;shape=mxgraph.aws4.resourceIcon;resIcon=mxgraph.aws4.s3;" parent="MufeMbEMQpiEw7InIswr-2" vertex="1">
          <mxGeometry x="160" y="272" width="78" height="78" as="geometry" />
        </mxCell>
        <mxCell id="MufeMbEMQpiEw7InIswr-50" value="" style="sketch=0;points=[[0,0,0],[0.25,0,0],[0.5,0,0],[0.75,0,0],[1,0,0],[0,1,0],[0.25,1,0],[0.5,1,0],[0.75,1,0],[1,1,0],[0,0.25,0],[0,0.5,0],[0,0.75,0],[1,0.25,0],[1,0.5,0],[1,0.75,0]];outlineConnect=0;fontColor=#232F3E;fillColor=#DD344C;strokeColor=#ffffff;dashed=0;verticalLabelPosition=bottom;verticalAlign=top;align=center;html=1;fontSize=12;fontStyle=0;aspect=fixed;shape=mxgraph.aws4.resourceIcon;resIcon=mxgraph.aws4.cognito;" parent="MufeMbEMQpiEw7InIswr-2" vertex="1">
          <mxGeometry x="159" y="475" width="78" height="78" as="geometry" />
        </mxCell>
        <mxCell id="MufeMbEMQpiEw7InIswr-59" value="AWS Cloud" style="text;html=1;align=center;verticalAlign=middle;whiteSpace=wrap;rounded=0;" parent="MufeMbEMQpiEw7InIswr-2" vertex="1">
          <mxGeometry x="19" width="80" height="20" as="geometry" />
        </mxCell>
        <mxCell id="MufeMbEMQpiEw7InIswr-60" value="AWS Amplify" style="text;html=1;align=center;verticalAlign=middle;whiteSpace=wrap;rounded=0;" parent="MufeMbEMQpiEw7InIswr-2" vertex="1">
          <mxGeometry x="20" y="350" width="80" height="20" as="geometry" />
        </mxCell>
        <mxCell id="MufeMbEMQpiEw7InIswr-61" value="Amazon S3" style="text;html=1;align=center;verticalAlign=middle;whiteSpace=wrap;rounded=0;" parent="MufeMbEMQpiEw7InIswr-2" vertex="1">
          <mxGeometry x="101" y="293" width="61" height="40" as="geometry" />
        </mxCell>
        <mxCell id="MufeMbEMQpiEw7InIswr-62" value="Amazon CloudFront" style="text;html=1;align=center;verticalAlign=middle;whiteSpace=wrap;rounded=0;" parent="MufeMbEMQpiEw7InIswr-2" vertex="1">
          <mxGeometry x="229" y="433.75" width="70" height="43.25" as="geometry" />
        </mxCell>
        <mxCell id="MufeMbEMQpiEw7InIswr-63" value="&lt;div&gt;Amazon Cognito&lt;/div&gt;" style="text;html=1;align=center;verticalAlign=middle;whiteSpace=wrap;rounded=0;" parent="MufeMbEMQpiEw7InIswr-2" vertex="1">
          <mxGeometry x="89" y="495.38" width="70" height="43.25" as="geometry" />
        </mxCell>
        <mxCell id="MufeMbEMQpiEw7InIswr-64" value="&lt;div&gt;&lt;b&gt;Application Frontend&lt;br&gt;&lt;/b&gt;&lt;/div&gt;" style="text;html=1;align=center;verticalAlign=middle;whiteSpace=wrap;rounded=0;" parent="MufeMbEMQpiEw7InIswr-2" vertex="1">
          <mxGeometry x="115" y="588.5" width="170" height="30" as="geometry" />
        </mxCell>
        <mxCell id="MufeMbEMQpiEw7InIswr-65" value="DynamoDB" style="text;html=1;align=center;verticalAlign=middle;whiteSpace=wrap;rounded=0;" parent="MufeMbEMQpiEw7InIswr-2" vertex="1">
          <mxGeometry x="590" y="200" width="70" height="43.25" as="geometry" />
        </mxCell>
        <mxCell id="MufeMbEMQpiEw7InIswr-66" value="&lt;div&gt;&lt;b&gt;Application Backend&lt;br&gt;&lt;/b&gt;&lt;/div&gt;&lt;div&gt;&lt;b&gt;+&lt;/b&gt;&lt;/div&gt;&lt;div&gt;&lt;b&gt;Feedback collection&lt;br&gt;&lt;/b&gt;&lt;/div&gt;" style="text;html=1;align=center;verticalAlign=middle;whiteSpace=wrap;rounded=0;" parent="MufeMbEMQpiEw7InIswr-2" vertex="1">
          <mxGeometry x="468" y="523" width="172" height="37" as="geometry" />
        </mxCell>
        <mxCell id="MufeMbEMQpiEw7InIswr-67" value="Agents for Bedrock invoked from any compute, Lambda, Fargate, EC2, EKS. ECS etc." style="text;html=1;align=center;verticalAlign=middle;whiteSpace=wrap;rounded=0;" parent="MufeMbEMQpiEw7InIswr-2" vertex="1">
          <mxGeometry x="429" y="442.38" width="254" height="26" as="geometry" />
        </mxCell>
        <mxCell id="MufeMbEMQpiEw7InIswr-74" value="task" style="text;strokeColor=none;align=center;fillColor=none;html=1;verticalAlign=middle;whiteSpace=wrap;rounded=0;" parent="MufeMbEMQpiEw7InIswr-2" vertex="1">
          <mxGeometry x="790" y="298.5" width="60" height="26" as="geometry" />
        </mxCell>
        <mxCell id="1QwhLPOlTZuQX5jJg51U-1" value="Social Intelligence Agent" style="text;html=1;align=center;verticalAlign=middle;whiteSpace=wrap;rounded=0;" parent="MufeMbEMQpiEw7InIswr-2" vertex="1">
          <mxGeometry x="690" y="458.26" width="150" height="33" as="geometry" />
        </mxCell>
        <mxCell id="mqrPMeG1t2pJUvO1WKw1-10" value="" style="endArrow=classic;startArrow=classic;html=1;rounded=0;exitX=0;exitY=0.5;exitDx=0;exitDy=0;entryX=0.5;entryY=1;entryDx=0;entryDy=0;entryPerimeter=0;" parent="MufeMbEMQpiEw7InIswr-2" target="MufeMbEMQpiEw7InIswr-4" edge="1">
          <mxGeometry width="50" height="50" relative="1" as="geometry">
            <mxPoint x="857" y="735" as="sourcePoint" />
            <mxPoint x="751" y="453" as="targetPoint" />
            <Array as="points">
              <mxPoint x="776" y="735" />
            </Array>
          </mxGeometry>
        </mxCell>
        <mxCell id="mqrPMeG1t2pJUvO1WKw1-11" value="" style="sketch=0;outlineConnect=0;fontColor=#232F3E;gradientColor=none;fillColor=#232F3D;strokeColor=none;dashed=0;verticalLabelPosition=bottom;verticalAlign=top;align=center;html=1;fontSize=12;fontStyle=0;aspect=fixed;pointerEvents=1;shape=mxgraph.aws4.forums;" parent="MufeMbEMQpiEw7InIswr-2" vertex="1">
          <mxGeometry x="922" y="671" width="51.32" height="50" as="geometry" />
        </mxCell>
        <mxCell id="mqrPMeG1t2pJUvO1WKw1-13" value="" style="sketch=0;points=[[0,0,0],[0.25,0,0],[0.5,0,0],[0.75,0,0],[1,0,0],[0,1,0],[0.25,1,0],[0.5,1,0],[0.75,1,0],[1,1,0],[0,0.25,0],[0,0.5,0],[0,0.75,0],[1,0.25,0],[1,0.5,0],[1,0.75,0]];outlineConnect=0;fontColor=#232F3E;fillColor=#ED7100;strokeColor=#ffffff;dashed=0;verticalLabelPosition=bottom;verticalAlign=top;align=center;html=1;fontSize=12;fontStyle=0;aspect=fixed;shape=mxgraph.aws4.resourceIcon;resIcon=mxgraph.aws4.lambda;" parent="MufeMbEMQpiEw7InIswr-2" vertex="1">
          <mxGeometry x="1082" y="671" width="50" height="50" as="geometry" />
        </mxCell>
        <mxCell id="mqrPMeG1t2pJUvO1WKw1-14" value="&lt;div&gt;Action Group&lt;/div&gt;&lt;div&gt;Lambda function&lt;br&gt;&lt;/div&gt;" style="text;html=1;align=center;verticalAlign=middle;whiteSpace=wrap;rounded=0;" parent="MufeMbEMQpiEw7InIswr-2" vertex="1">
          <mxGeometry x="1042" y="731" width="130" height="20" as="geometry" />
        </mxCell>
        <mxCell id="mqrPMeG1t2pJUvO1WKw1-15" value="Insights Action Group" style="text;html=1;align=center;verticalAlign=middle;whiteSpace=wrap;rounded=0;" parent="MufeMbEMQpiEw7InIswr-2" vertex="1">
          <mxGeometry x="852.66" y="726.5" width="180" height="29" as="geometry" />
        </mxCell>
        <mxCell id="mqrPMeG1t2pJUvO1WKw1-16" value="Invoke" style="text;strokeColor=none;align=center;fillColor=none;html=1;verticalAlign=middle;whiteSpace=wrap;rounded=0;" parent="MufeMbEMQpiEw7InIswr-2" vertex="1">
          <mxGeometry x="1000" y="667" width="60" height="26" as="geometry" />
        </mxCell>
        <mxCell id="mqrPMeG1t2pJUvO1WKw1-17" value="Respond" style="text;strokeColor=none;align=center;fillColor=none;html=1;verticalAlign=middle;whiteSpace=wrap;rounded=0;" parent="MufeMbEMQpiEw7InIswr-2" vertex="1">
          <mxGeometry x="1000" y="705" width="60" height="26" as="geometry" />
        </mxCell>
        <mxCell id="mqrPMeG1t2pJUvO1WKw1-19" value="" style="endArrow=classic;html=1;rounded=0;dashed=1;" parent="MufeMbEMQpiEw7InIswr-2" edge="1">
          <mxGeometry width="50" height="50" relative="1" as="geometry">
            <mxPoint x="1070" y="706" as="sourcePoint" />
            <mxPoint x="980" y="706" as="targetPoint" />
          </mxGeometry>
        </mxCell>
        <mxCell id="mqrPMeG1t2pJUvO1WKw1-20" value="" style="endArrow=classic;html=1;rounded=0;dashed=1;" parent="MufeMbEMQpiEw7InIswr-2" edge="1">
          <mxGeometry width="50" height="50" relative="1" as="geometry">
            <mxPoint x="980" y="693" as="sourcePoint" />
            <mxPoint x="1070" y="693" as="targetPoint" />
          </mxGeometry>
        </mxCell>
        <mxCell id="mqrPMeG1t2pJUvO1WKw1-21" value="" style="endArrow=classic;startArrow=classic;html=1;rounded=0;dashed=1;exitX=1;exitY=0.5;exitDx=0;exitDy=0;exitPerimeter=0;" parent="MufeMbEMQpiEw7InIswr-2" edge="1">
          <mxGeometry width="50" height="50" relative="1" as="geometry">
            <mxPoint x="1140" y="695.9999999999998" as="sourcePoint" />
            <mxPoint x="1230" y="696" as="targetPoint" />
          </mxGeometry>
        </mxCell>
        <mxCell id="mqrPMeG1t2pJUvO1WKw1-22" value="" style="sketch=0;points=[[0,0,0],[0.25,0,0],[0.5,0,0],[0.75,0,0],[1,0,0],[0,1,0],[0.25,1,0],[0.5,1,0],[0.75,1,0],[1,1,0],[0,0.25,0],[0,0.5,0],[0,0.75,0],[1,0.25,0],[1,0.5,0],[1,0.75,0]];outlineConnect=0;fontColor=#232F3E;fillColor=#8C4FFF;strokeColor=#ffffff;dashed=0;verticalLabelPosition=bottom;verticalAlign=top;align=center;html=1;fontSize=12;fontStyle=0;aspect=fixed;shape=mxgraph.aws4.resourceIcon;resIcon=mxgraph.aws4.elasticsearch_service;" parent="MufeMbEMQpiEw7InIswr-2" vertex="1">
          <mxGeometry x="1117" y="274.25" width="50" height="50" as="geometry" />
        </mxCell>
        <mxCell id="mqrPMeG1t2pJUvO1WKw1-23" value="" style="sketch=0;points=[[0,0,0],[0.25,0,0],[0.5,0,0],[0.75,0,0],[1,0,0],[0,1,0],[0.25,1,0],[0.5,1,0],[0.75,1,0],[1,1,0],[0,0.25,0],[0,0.5,0],[0,0.75,0],[1,0.25,0],[1,0.5,0],[1,0.75,0]];outlineConnect=0;fontColor=#232F3E;fillColor=#7AA116;strokeColor=#ffffff;dashed=0;verticalLabelPosition=bottom;verticalAlign=top;align=center;html=1;fontSize=12;fontStyle=0;aspect=fixed;shape=mxgraph.aws4.resourceIcon;resIcon=mxgraph.aws4.s3;" parent="MufeMbEMQpiEw7InIswr-2" vertex="1">
          <mxGeometry x="1266.75" y="268.25" width="56" height="56" as="geometry" />
        </mxCell>
        <mxCell id="mqrPMeG1t2pJUvO1WKw1-27" value="" style="endArrow=classic;html=1;rounded=0;dashed=1;" parent="MufeMbEMQpiEw7InIswr-2" edge="1">
          <mxGeometry width="50" height="50" relative="1" as="geometry">
            <mxPoint x="1262" y="310" as="sourcePoint" />
            <mxPoint x="1172" y="310" as="targetPoint" />
          </mxGeometry>
        </mxCell>
        <mxCell id="mqrPMeG1t2pJUvO1WKw1-28" value="" style="endArrow=classic;html=1;rounded=0;dashed=1;" parent="MufeMbEMQpiEw7InIswr-2" edge="1">
          <mxGeometry width="50" height="50" relative="1" as="geometry">
            <mxPoint x="1176" y="293" as="sourcePoint" />
            <mxPoint x="1266" y="293" as="targetPoint" />
          </mxGeometry>
        </mxCell>
        <mxCell id="mqrPMeG1t2pJUvO1WKw1-29" value="Opensearch Serverless index" style="text;html=1;align=center;verticalAlign=middle;whiteSpace=wrap;rounded=0;" parent="MufeMbEMQpiEw7InIswr-2" vertex="1">
          <mxGeometry x="1079.32" y="340.25" width="130" height="20" as="geometry" />
        </mxCell>
        <mxCell id="mqrPMeG1t2pJUvO1WKw1-30" value="Connects to" style="text;strokeColor=none;align=center;fillColor=none;html=1;verticalAlign=middle;whiteSpace=wrap;rounded=0;" parent="MufeMbEMQpiEw7InIswr-2" vertex="1">
          <mxGeometry x="1174" y="260" width="73" height="29.5" as="geometry" />
        </mxCell>
        <mxCell id="mqrPMeG1t2pJUvO1WKw1-31" value="feeds" style="text;strokeColor=none;align=center;fillColor=none;html=1;verticalAlign=middle;whiteSpace=wrap;rounded=0;" parent="MufeMbEMQpiEw7InIswr-2" vertex="1">
          <mxGeometry x="1183" y="303.25" width="73" height="29.5" as="geometry" />
        </mxCell>
        <mxCell id="mqrPMeG1t2pJUvO1WKw1-32" value="Amazon S3 with CRM data" style="text;html=1;align=center;verticalAlign=middle;whiteSpace=wrap;rounded=0;" parent="MufeMbEMQpiEw7InIswr-2" vertex="1">
          <mxGeometry x="1228.75" y="334.25" width="130" height="20" as="geometry" />
        </mxCell>
        <mxCell id="mqrPMeG1t2pJUvO1WKw1-33" value="Search on" style="text;strokeColor=none;align=center;fillColor=none;html=1;verticalAlign=middle;whiteSpace=wrap;rounded=0;" parent="MufeMbEMQpiEw7InIswr-2" vertex="1">
          <mxGeometry x="1038" y="262.25" width="73" height="29.5" as="geometry" />
        </mxCell>
        <mxCell id="mqrPMeG1t2pJUvO1WKw1-34" value="context" style="text;strokeColor=none;align=center;fillColor=none;html=1;verticalAlign=middle;whiteSpace=wrap;rounded=0;" parent="MufeMbEMQpiEw7InIswr-2" vertex="1">
          <mxGeometry x="1038" y="304.25" width="73" height="29.5" as="geometry" />
        </mxCell>
        <mxCell id="mqrPMeG1t2pJUvO1WKw1-39" value="" style="endArrow=classic;html=1;rounded=0;dashed=1;entryX=1;entryY=1;entryDx=0;entryDy=0;exitX=0;exitY=1;exitDx=0;exitDy=0;" parent="MufeMbEMQpiEw7InIswr-2" source="mqrPMeG1t2pJUvO1WKw1-33" target="mqrPMeG1t2pJUvO1WKw1-33" edge="1">
          <mxGeometry width="50" height="50" relative="1" as="geometry">
            <mxPoint x="1067" y="395" as="sourcePoint" />
            <mxPoint x="1156.5" y="400.5" as="targetPoint" />
          </mxGeometry>
        </mxCell>
        <mxCell id="mqrPMeG1t2pJUvO1WKw1-38" value="" style="endArrow=classic;html=1;rounded=0;dashed=1;" parent="MufeMbEMQpiEw7InIswr-2" edge="1">
          <mxGeometry width="50" height="50" relative="1" as="geometry">
            <mxPoint x="1106.5" y="304.75" as="sourcePoint" />
            <mxPoint x="1038" y="304.25" as="targetPoint" />
          </mxGeometry>
        </mxCell>
        <mxCell id="mqrPMeG1t2pJUvO1WKw1-40" value="" style="sketch=0;outlineConnect=0;fontColor=#232F3E;gradientColor=none;fillColor=#01A88D;strokeColor=none;dashed=0;verticalLabelPosition=bottom;verticalAlign=top;align=center;html=1;fontSize=12;fontStyle=0;aspect=fixed;pointerEvents=1;shape=mxgraph.aws4.sagemaker_train;" parent="MufeMbEMQpiEw7InIswr-2" vertex="1">
          <mxGeometry x="950.3199999999999" y="262.75" width="78" height="65" as="geometry" />
        </mxCell>
        <mxCell id="mqrPMeG1t2pJUvO1WKw1-41" value="CRM Data KB" style="text;html=1;align=center;verticalAlign=middle;whiteSpace=wrap;rounded=0;" parent="MufeMbEMQpiEw7InIswr-2" vertex="1">
          <mxGeometry x="899.3199999999999" y="329.75" width="180" height="29" as="geometry" />
        </mxCell>
        <mxCell id="mqrPMeG1t2pJUvO1WKw1-42" value="task (text-to-sql)" style="text;strokeColor=none;align=center;fillColor=none;html=1;verticalAlign=middle;whiteSpace=wrap;rounded=0;" parent="MufeMbEMQpiEw7InIswr-2" vertex="1">
          <mxGeometry x="790" y="693" width="60" height="26" as="geometry" />
        </mxCell>
        <mxCell id="MufeMbEMQpiEw7InIswr-54" value="" style="endArrow=classic;startArrow=classic;html=1;rounded=0;exitX=1;exitY=0.5;exitDx=0;exitDy=0;exitPerimeter=0;" parent="MufeMbEMQpiEw7InIswr-2" edge="1">
          <mxGeometry width="50" height="50" relative="1" as="geometry">
            <mxPoint x="260" y="419.5" as="sourcePoint" />
            <mxPoint x="302" y="419.5" as="targetPoint" />
          </mxGeometry>
        </mxCell>
        <mxCell id="MufeMbEMQpiEw7InIswr-53" value="" style="endArrow=classic;startArrow=classic;html=1;rounded=0;entryX=0;entryY=0.5;entryDx=0;entryDy=0;" parent="MufeMbEMQpiEw7InIswr-2" edge="1">
          <mxGeometry width="50" height="50" relative="1" as="geometry">
            <mxPoint x="98.5" y="414.7" as="sourcePoint" />
            <mxPoint x="140" y="414.63" as="targetPoint" />
          </mxGeometry>
        </mxCell>
        <mxCell id="MufeMbEMQpiEw7InIswr-55" value="" style="endArrow=classic;startArrow=classic;html=1;rounded=0;exitX=1;exitY=0.5;exitDx=0;exitDy=0;exitPerimeter=0;" parent="MufeMbEMQpiEw7InIswr-2" edge="1">
          <mxGeometry width="50" height="50" relative="1" as="geometry">
            <mxPoint x="374" y="419.5" as="sourcePoint" />
            <mxPoint x="416" y="419.5" as="targetPoint" />
          </mxGeometry>
        </mxCell>
        <mxCell id="MufeMbEMQpiEw7InIswr-56" value="" style="endArrow=classic;startArrow=classic;html=1;rounded=0;" parent="MufeMbEMQpiEw7InIswr-2" edge="1">
          <mxGeometry width="50" height="50" relative="1" as="geometry">
            <mxPoint x="687" y="420" as="sourcePoint" />
            <mxPoint x="738" y="419.5" as="targetPoint" />
          </mxGeometry>
        </mxCell>
        <mxCell id="mqrPMeG1t2pJUvO1WKw1-49" value="" style="sketch=0;points=[[0,0,0],[0.25,0,0],[0.5,0,0],[0.75,0,0],[1,0,0],[0,1,0],[0.25,1,0],[0.5,1,0],[0.75,1,0],[1,1,0],[0,0.25,0],[0,0.5,0],[0,0.75,0],[1,0.25,0],[1,0.5,0],[1,0.75,0]];outlineConnect=0;fontColor=#232F3E;fillColor=#8C4FFF;strokeColor=#ffffff;dashed=0;verticalLabelPosition=bottom;verticalAlign=top;align=center;html=1;fontSize=12;fontStyle=0;aspect=fixed;shape=mxgraph.aws4.resourceIcon;resIcon=mxgraph.aws4.elasticsearch_service;" parent="MufeMbEMQpiEw7InIswr-2" vertex="1">
          <mxGeometry x="1119" y="542" width="50" height="50" as="geometry" />
        </mxCell>
        <mxCell id="mqrPMeG1t2pJUvO1WKw1-50" value="" style="sketch=0;points=[[0,0,0],[0.25,0,0],[0.5,0,0],[0.75,0,0],[1,0,0],[0,1,0],[0.25,1,0],[0.5,1,0],[0.75,1,0],[1,1,0],[0,0.25,0],[0,0.5,0],[0,0.75,0],[1,0.25,0],[1,0.5,0],[1,0.75,0]];outlineConnect=0;fontColor=#232F3E;fillColor=#7AA116;strokeColor=#ffffff;dashed=0;verticalLabelPosition=bottom;verticalAlign=top;align=center;html=1;fontSize=12;fontStyle=0;aspect=fixed;shape=mxgraph.aws4.resourceIcon;resIcon=mxgraph.aws4.s3;" parent="MufeMbEMQpiEw7InIswr-2" vertex="1">
          <mxGeometry x="1268.75" y="536" width="56" height="56" as="geometry" />
        </mxCell>
        <mxCell id="mqrPMeG1t2pJUvO1WKw1-51" value="Opensearch Serverless index" style="text;html=1;align=center;verticalAlign=middle;whiteSpace=wrap;rounded=0;" parent="MufeMbEMQpiEw7InIswr-2" vertex="1">
          <mxGeometry x="1081.32" y="609" width="130" height="20" as="geometry" />
        </mxCell>
        <mxCell id="mqrPMeG1t2pJUvO1WKw1-52" value="Connects to" style="text;strokeColor=none;align=center;fillColor=none;html=1;verticalAlign=middle;whiteSpace=wrap;rounded=0;" parent="MufeMbEMQpiEw7InIswr-2" vertex="1">
          <mxGeometry x="1176" y="532.75" width="73" height="29.5" as="geometry" />
        </mxCell>
        <mxCell id="mqrPMeG1t2pJUvO1WKw1-53" value="feeds" style="text;strokeColor=none;align=center;fillColor=none;html=1;verticalAlign=middle;whiteSpace=wrap;rounded=0;" parent="MufeMbEMQpiEw7InIswr-2" vertex="1">
          <mxGeometry x="1179" y="572.5" width="73" height="29.5" as="geometry" />
        </mxCell>
        <mxCell id="mqrPMeG1t2pJUvO1WKw1-54" value="Taxonomy data" style="text;html=1;align=center;verticalAlign=middle;whiteSpace=wrap;rounded=0;" parent="MufeMbEMQpiEw7InIswr-2" vertex="1">
          <mxGeometry x="1228.75" y="602" width="130" height="20" as="geometry" />
        </mxCell>
        <mxCell id="mqrPMeG1t2pJUvO1WKw1-55" value="Search on" style="text;strokeColor=none;align=center;fillColor=none;html=1;verticalAlign=middle;whiteSpace=wrap;rounded=0;" parent="MufeMbEMQpiEw7InIswr-2" vertex="1">
          <mxGeometry x="1040" y="530" width="73" height="29.5" as="geometry" />
        </mxCell>
        <mxCell id="mqrPMeG1t2pJUvO1WKw1-56" value="context" style="text;strokeColor=none;align=center;fillColor=none;html=1;verticalAlign=middle;whiteSpace=wrap;rounded=0;" parent="MufeMbEMQpiEw7InIswr-2" vertex="1">
          <mxGeometry x="1040" y="572" width="73" height="29.5" as="geometry" />
        </mxCell>
        <mxCell id="mqrPMeG1t2pJUvO1WKw1-57" value="" style="sketch=0;outlineConnect=0;fontColor=#232F3E;gradientColor=none;fillColor=#01A88D;strokeColor=none;dashed=0;verticalLabelPosition=bottom;verticalAlign=top;align=center;html=1;fontSize=12;fontStyle=0;aspect=fixed;pointerEvents=1;shape=mxgraph.aws4.sagemaker_train;" parent="MufeMbEMQpiEw7InIswr-2" vertex="1">
          <mxGeometry x="952.3199999999999" y="530.5" width="78" height="65" as="geometry" />
        </mxCell>
        <mxCell id="mqrPMeG1t2pJUvO1WKw1-58" value="Domain_Data Bedrock KB" style="text;html=1;align=center;verticalAlign=middle;whiteSpace=wrap;rounded=0;" parent="MufeMbEMQpiEw7InIswr-2" vertex="1">
          <mxGeometry x="901.3199999999999" y="597.5" width="180" height="29" as="geometry" />
        </mxCell>
        <mxCell id="mqrPMeG1t2pJUvO1WKw1-59" value="" style="endArrow=classic;html=1;rounded=0;dashed=1;" parent="MufeMbEMQpiEw7InIswr-2" edge="1">
          <mxGeometry width="50" height="50" relative="1" as="geometry">
            <mxPoint x="1264.75" y="577.25" as="sourcePoint" />
            <mxPoint x="1174.75" y="577.25" as="targetPoint" />
          </mxGeometry>
        </mxCell>
        <mxCell id="mqrPMeG1t2pJUvO1WKw1-60" value="" style="endArrow=classic;html=1;rounded=0;dashed=1;" parent="MufeMbEMQpiEw7InIswr-2" edge="1">
          <mxGeometry width="50" height="50" relative="1" as="geometry">
            <mxPoint x="1178.75" y="560.25" as="sourcePoint" />
            <mxPoint x="1268.75" y="560.25" as="targetPoint" />
          </mxGeometry>
        </mxCell>
        <mxCell id="mqrPMeG1t2pJUvO1WKw1-61" value="" style="endArrow=classic;html=1;rounded=0;dashed=1;entryX=1;entryY=1;entryDx=0;entryDy=0;exitX=0;exitY=1;exitDx=0;exitDy=0;" parent="MufeMbEMQpiEw7InIswr-2" edge="1">
          <mxGeometry width="50" height="50" relative="1" as="geometry">
            <mxPoint x="1040.25" y="560" as="sourcePoint" />
            <mxPoint x="1113.25" y="560" as="targetPoint" />
          </mxGeometry>
        </mxCell>
        <mxCell id="mqrPMeG1t2pJUvO1WKw1-62" value="" style="endArrow=classic;html=1;rounded=0;dashed=1;" parent="MufeMbEMQpiEw7InIswr-2" edge="1">
          <mxGeometry width="50" height="50" relative="1" as="geometry">
            <mxPoint x="1109.25" y="574" as="sourcePoint" />
            <mxPoint x="1040.75" y="573.5" as="targetPoint" />
          </mxGeometry>
        </mxCell>
        <mxCell id="6AUojFRe7_ksaTG40HAu-3" value="" style="sketch=0;points=[[0,0,0],[0.25,0,0],[0.5,0,0],[0.75,0,0],[1,0,0],[0,1,0],[0.25,1,0],[0.5,1,0],[0.75,1,0],[1,1,0],[0,0.25,0],[0,0.5,0],[0,0.75,0],[1,0.25,0],[1,0.5,0],[1,0.75,0]];outlineConnect=0;fontColor=#232F3E;fillColor=#C925D1;strokeColor=#ffffff;dashed=0;verticalLabelPosition=bottom;verticalAlign=top;align=center;html=1;fontSize=12;fontStyle=0;aspect=fixed;shape=mxgraph.aws4.resourceIcon;resIcon=mxgraph.aws4.dynamodb;" parent="MufeMbEMQpiEw7InIswr-2" vertex="1">
          <mxGeometry x="512" y="182" width="78" height="78" as="geometry" />
        </mxCell>
        <mxCell id="6AUojFRe7_ksaTG40HAu-4" value="" style="endArrow=classic;startArrow=classic;html=1;rounded=0;entryX=0.5;entryY=0;entryDx=0;entryDy=0;" parent="MufeMbEMQpiEw7InIswr-2" source="6AUojFRe7_ksaTG40HAu-3" target="MufeMbEMQpiEw7InIswr-39" edge="1">
          <mxGeometry width="50" height="50" relative="1" as="geometry">
            <mxPoint x="539" y="265" as="sourcePoint" />
            <mxPoint x="590" y="264.5" as="targetPoint" />
          </mxGeometry>
        </mxCell>
        <mxCell id="zAbW5wVqno82e7CFk5vz-1" value="" style="sketch=0;points=[[0,0,0],[0.25,0,0],[0.5,0,0],[0.75,0,0],[1,0,0],[0,1,0],[0.25,1,0],[0.5,1,0],[0.75,1,0],[1,1,0],[0,0.25,0],[0,0.5,0],[0,0.75,0],[1,0.25,0],[1,0.5,0],[1,0.75,0]];outlineConnect=0;fontColor=#232F3E;fillColor=#8C4FFF;strokeColor=#ffffff;dashed=0;verticalLabelPosition=bottom;verticalAlign=top;align=center;html=1;fontSize=12;fontStyle=0;aspect=fixed;shape=mxgraph.aws4.resourceIcon;resIcon=mxgraph.aws4.elasticsearch_service;" vertex="1" parent="MufeMbEMQpiEw7InIswr-2">
          <mxGeometry x="1112" y="124.25" width="50" height="50" as="geometry" />
        </mxCell>
        <mxCell id="zAbW5wVqno82e7CFk5vz-2" value="" style="sketch=0;points=[[0,0,0],[0.25,0,0],[0.5,0,0],[0.75,0,0],[1,0,0],[0,1,0],[0.25,1,0],[0.5,1,0],[0.75,1,0],[1,1,0],[0,0.25,0],[0,0.5,0],[0,0.75,0],[1,0.25,0],[1,0.5,0],[1,0.75,0]];outlineConnect=0;fontColor=#232F3E;fillColor=#7AA116;strokeColor=#ffffff;dashed=0;verticalLabelPosition=bottom;verticalAlign=top;align=center;html=1;fontSize=12;fontStyle=0;aspect=fixed;shape=mxgraph.aws4.resourceIcon;resIcon=mxgraph.aws4.s3;" vertex="1" parent="MufeMbEMQpiEw7InIswr-2">
          <mxGeometry x="1261.75" y="118.25" width="56" height="56" as="geometry" />
        </mxCell>
        <mxCell id="zAbW5wVqno82e7CFk5vz-3" value="Opensearch Serverless index" style="text;html=1;align=center;verticalAlign=middle;whiteSpace=wrap;rounded=0;" vertex="1" parent="MufeMbEMQpiEw7InIswr-2">
          <mxGeometry x="1074.32" y="190.25" width="130" height="20" as="geometry" />
        </mxCell>
        <mxCell id="zAbW5wVqno82e7CFk5vz-4" value="Connects to" style="text;strokeColor=none;align=center;fillColor=none;html=1;verticalAlign=middle;whiteSpace=wrap;rounded=0;" vertex="1" parent="MufeMbEMQpiEw7InIswr-2">
          <mxGeometry x="1169" y="110" width="73" height="29.5" as="geometry" />
        </mxCell>
        <mxCell id="zAbW5wVqno82e7CFk5vz-5" value="feeds" style="text;strokeColor=none;align=center;fillColor=none;html=1;verticalAlign=middle;whiteSpace=wrap;rounded=0;" vertex="1" parent="MufeMbEMQpiEw7InIswr-2">
          <mxGeometry x="1178" y="153.25" width="73" height="29.5" as="geometry" />
        </mxCell>
        <mxCell id="zAbW5wVqno82e7CFk5vz-6" value="Amazon S3 with Audio Transcripts" style="text;html=1;align=center;verticalAlign=middle;whiteSpace=wrap;rounded=0;" vertex="1" parent="MufeMbEMQpiEw7InIswr-2">
          <mxGeometry x="1223.75" y="184.25" width="130" height="20" as="geometry" />
        </mxCell>
        <mxCell id="zAbW5wVqno82e7CFk5vz-7" value="Search on" style="text;strokeColor=none;align=center;fillColor=none;html=1;verticalAlign=middle;whiteSpace=wrap;rounded=0;" vertex="1" parent="MufeMbEMQpiEw7InIswr-2">
          <mxGeometry x="1033" y="112.25" width="73" height="29.5" as="geometry" />
        </mxCell>
        <mxCell id="zAbW5wVqno82e7CFk5vz-8" value="context" style="text;strokeColor=none;align=center;fillColor=none;html=1;verticalAlign=middle;whiteSpace=wrap;rounded=0;" vertex="1" parent="MufeMbEMQpiEw7InIswr-2">
          <mxGeometry x="1033" y="150" width="73" height="33.75" as="geometry" />
        </mxCell>
        <mxCell id="zAbW5wVqno82e7CFk5vz-9" value="" style="sketch=0;outlineConnect=0;fontColor=#232F3E;gradientColor=none;fillColor=#01A88D;strokeColor=none;dashed=0;verticalLabelPosition=bottom;verticalAlign=top;align=center;html=1;fontSize=12;fontStyle=0;aspect=fixed;pointerEvents=1;shape=mxgraph.aws4.sagemaker_train;" vertex="1" parent="MufeMbEMQpiEw7InIswr-2">
          <mxGeometry x="945.3199999999999" y="112.75" width="78" height="65" as="geometry" />
        </mxCell>
        <mxCell id="zAbW5wVqno82e7CFk5vz-10" value="Transcripts KB" style="text;html=1;align=center;verticalAlign=middle;whiteSpace=wrap;rounded=0;" vertex="1" parent="MufeMbEMQpiEw7InIswr-2">
          <mxGeometry x="894.3199999999999" y="179.75" width="180" height="29" as="geometry" />
        </mxCell>
        <mxCell id="zAbW5wVqno82e7CFk5vz-12" value="" style="endArrow=classic;html=1;rounded=0;dashed=1;" edge="1" parent="MufeMbEMQpiEw7InIswr-2">
          <mxGeometry width="50" height="50" relative="1" as="geometry">
            <mxPoint x="1171.75" y="139.5" as="sourcePoint" />
            <mxPoint x="1261.75" y="139.5" as="targetPoint" />
          </mxGeometry>
        </mxCell>
        <mxCell id="zAbW5wVqno82e7CFk5vz-13" value="" style="endArrow=classic;html=1;rounded=0;dashed=1;exitX=1;exitY=0.25;exitDx=0;exitDy=0;" edge="1" parent="MufeMbEMQpiEw7InIswr-2">
          <mxGeometry width="50" height="50" relative="1" as="geometry">
            <mxPoint x="1257" y="155.625" as="sourcePoint" />
            <mxPoint x="1170" y="156" as="targetPoint" />
          </mxGeometry>
        </mxCell>
        <mxCell id="zAbW5wVqno82e7CFk5vz-15" value="" style="sketch=0;points=[[0,0,0],[0.25,0,0],[0.5,0,0],[0.75,0,0],[1,0,0],[0,1,0],[0.25,1,0],[0.5,1,0],[0.75,1,0],[1,1,0],[0,0.25,0],[0,0.5,0],[0,0.75,0],[1,0.25,0],[1,0.5,0],[1,0.75,0]];outlineConnect=0;fontColor=#232F3E;fillColor=#8C4FFF;strokeColor=#ffffff;dashed=0;verticalLabelPosition=bottom;verticalAlign=top;align=center;html=1;fontSize=12;fontStyle=0;aspect=fixed;shape=mxgraph.aws4.resourceIcon;resIcon=mxgraph.aws4.elasticsearch_service;" vertex="1" parent="MufeMbEMQpiEw7InIswr-2">
          <mxGeometry x="1117" y="401.25" width="50" height="50" as="geometry" />
        </mxCell>
        <mxCell id="zAbW5wVqno82e7CFk5vz-16" value="" style="sketch=0;points=[[0,0,0],[0.25,0,0],[0.5,0,0],[0.75,0,0],[1,0,0],[0,1,0],[0.25,1,0],[0.5,1,0],[0.75,1,0],[1,1,0],[0,0.25,0],[0,0.5,0],[0,0.75,0],[1,0.25,0],[1,0.5,0],[1,0.75,0]];outlineConnect=0;fontColor=#232F3E;fillColor=#7AA116;strokeColor=#ffffff;dashed=0;verticalLabelPosition=bottom;verticalAlign=top;align=center;html=1;fontSize=12;fontStyle=0;aspect=fixed;shape=mxgraph.aws4.resourceIcon;resIcon=mxgraph.aws4.s3;" vertex="1" parent="MufeMbEMQpiEw7InIswr-2">
          <mxGeometry x="1266.75" y="395.25" width="56" height="56" as="geometry" />
        </mxCell>
        <mxCell id="zAbW5wVqno82e7CFk5vz-17" value="Opensearch Serverless index" style="text;html=1;align=center;verticalAlign=middle;whiteSpace=wrap;rounded=0;" vertex="1" parent="MufeMbEMQpiEw7InIswr-2">
          <mxGeometry x="1079.32" y="467.25" width="130" height="20" as="geometry" />
        </mxCell>
        <mxCell id="zAbW5wVqno82e7CFk5vz-18" value="Connects to" style="text;strokeColor=none;align=center;fillColor=none;html=1;verticalAlign=middle;whiteSpace=wrap;rounded=0;" vertex="1" parent="MufeMbEMQpiEw7InIswr-2">
          <mxGeometry x="1174" y="387" width="73" height="29.5" as="geometry" />
        </mxCell>
        <mxCell id="zAbW5wVqno82e7CFk5vz-19" value="feeds" style="text;strokeColor=none;align=center;fillColor=none;html=1;verticalAlign=middle;whiteSpace=wrap;rounded=0;" vertex="1" parent="MufeMbEMQpiEw7InIswr-2">
          <mxGeometry x="1183" y="430.25" width="73" height="29.5" as="geometry" />
        </mxCell>
        <mxCell id="zAbW5wVqno82e7CFk5vz-20" value="Social Media Posts data" style="text;html=1;align=center;verticalAlign=middle;whiteSpace=wrap;rounded=0;" vertex="1" parent="MufeMbEMQpiEw7InIswr-2">
          <mxGeometry x="1228.75" y="461.25" width="130" height="20" as="geometry" />
        </mxCell>
        <mxCell id="zAbW5wVqno82e7CFk5vz-21" value="Search on" style="text;strokeColor=none;align=center;fillColor=none;html=1;verticalAlign=middle;whiteSpace=wrap;rounded=0;" vertex="1" parent="MufeMbEMQpiEw7InIswr-2">
          <mxGeometry x="1038" y="389.25" width="73" height="29.5" as="geometry" />
        </mxCell>
        <mxCell id="zAbW5wVqno82e7CFk5vz-22" value="context" style="text;strokeColor=none;align=center;fillColor=none;html=1;verticalAlign=middle;whiteSpace=wrap;rounded=0;" vertex="1" parent="MufeMbEMQpiEw7InIswr-2">
          <mxGeometry x="1038" y="427" width="73" height="33.75" as="geometry" />
        </mxCell>
        <mxCell id="zAbW5wVqno82e7CFk5vz-23" value="" style="sketch=0;outlineConnect=0;fontColor=#232F3E;gradientColor=none;fillColor=#01A88D;strokeColor=none;dashed=0;verticalLabelPosition=bottom;verticalAlign=top;align=center;html=1;fontSize=12;fontStyle=0;aspect=fixed;pointerEvents=1;shape=mxgraph.aws4.sagemaker_train;" vertex="1" parent="MufeMbEMQpiEw7InIswr-2">
          <mxGeometry x="950.3199999999999" y="389.75" width="78" height="65" as="geometry" />
        </mxCell>
        <mxCell id="zAbW5wVqno82e7CFk5vz-24" value="Socal Media Posts KB" style="text;html=1;align=center;verticalAlign=middle;whiteSpace=wrap;rounded=0;" vertex="1" parent="MufeMbEMQpiEw7InIswr-2">
          <mxGeometry x="899.3199999999999" y="456.75" width="180" height="29" as="geometry" />
        </mxCell>
        <mxCell id="zAbW5wVqno82e7CFk5vz-29" value="" style="endArrow=classic;html=1;rounded=0;dashed=1;" edge="1" parent="MufeMbEMQpiEw7InIswr-2">
          <mxGeometry width="50" height="50" relative="1" as="geometry">
            <mxPoint x="1101.5" y="155.75" as="sourcePoint" />
            <mxPoint x="1033" y="155.25" as="targetPoint" />
          </mxGeometry>
        </mxCell>
        <mxCell id="zAbW5wVqno82e7CFk5vz-30" value="" style="endArrow=classic;html=1;rounded=0;dashed=1;" edge="1" parent="MufeMbEMQpiEw7InIswr-2">
          <mxGeometry width="50" height="50" relative="1" as="geometry">
            <mxPoint x="1111" y="432.81999999999994" as="sourcePoint" />
            <mxPoint x="1042.5" y="432.31999999999994" as="targetPoint" />
          </mxGeometry>
        </mxCell>
        <mxCell id="zAbW5wVqno82e7CFk5vz-33" value="" style="endArrow=classic;html=1;rounded=0;dashed=1;" edge="1" parent="MufeMbEMQpiEw7InIswr-2">
          <mxGeometry width="50" height="50" relative="1" as="geometry">
            <mxPoint x="1031.5" y="139.5" as="sourcePoint" />
            <mxPoint x="1100" y="140" as="targetPoint" />
          </mxGeometry>
        </mxCell>
        <mxCell id="zAbW5wVqno82e7CFk5vz-35" value="" style="sketch=0;points=[[0,0,0],[0.25,0,0],[0.5,0,0],[0.75,0,0],[1,0,0],[0,1,0],[0.25,1,0],[0.5,1,0],[0.75,1,0],[1,1,0],[0,0.25,0],[0,0.5,0],[0,0.75,0],[1,0.25,0],[1,0.5,0],[1,0.75,0]];outlineConnect=0;fontColor=#232F3E;fillColor=#C925D1;strokeColor=#ffffff;dashed=0;verticalLabelPosition=bottom;verticalAlign=top;align=center;html=1;fontSize=12;fontStyle=0;aspect=fixed;shape=mxgraph.aws4.resourceIcon;resIcon=mxgraph.aws4.rds;" vertex="1" parent="MufeMbEMQpiEw7InIswr-2">
          <mxGeometry x="1242" y="670.9999999999998" width="78" height="78" as="geometry" />
        </mxCell>
        <mxCell id="zAbW5wVqno82e7CFk5vz-38" value="task" style="text;strokeColor=none;align=center;fillColor=none;html=1;verticalAlign=middle;whiteSpace=wrap;rounded=0;" vertex="1" parent="MufeMbEMQpiEw7InIswr-2">
          <mxGeometry x="790" y="569.5" width="60" height="26" as="geometry" />
        </mxCell>
        <mxCell id="zAbW5wVqno82e7CFk5vz-39" value="task" style="text;strokeColor=none;align=center;fillColor=none;html=1;verticalAlign=middle;whiteSpace=wrap;rounded=0;" vertex="1" parent="MufeMbEMQpiEw7InIswr-2">
          <mxGeometry x="808" y="416.38" width="60" height="26" as="geometry" />
        </mxCell>
        <mxCell id="zAbW5wVqno82e7CFk5vz-41" value="RDS postGres DB" style="text;strokeColor=none;align=center;fillColor=none;html=1;verticalAlign=middle;whiteSpace=wrap;rounded=0;" vertex="1" parent="MufeMbEMQpiEw7InIswr-2">
          <mxGeometry x="1247" y="751" width="78" height="26" as="geometry" />
        </mxCell>
        <mxCell id="MufeMbEMQpiEw7InIswr-3" value="User" style="sketch=0;outlineConnect=0;fontColor=#232F3E;gradientColor=none;strokeColor=#232F3E;fillColor=#ffffff;dashed=0;verticalLabelPosition=bottom;verticalAlign=top;align=center;html=1;fontSize=12;fontStyle=0;aspect=fixed;shape=mxgraph.aws4.resourceIcon;resIcon=mxgraph.aws4.user;" parent="1" vertex="1">
          <mxGeometry x="-740" y="805.13" width="60" height="60" as="geometry" />
        </mxCell>
        <mxCell id="MufeMbEMQpiEw7InIswr-52" value="" style="endArrow=classic;startArrow=classic;html=1;rounded=0;" parent="1" source="MufeMbEMQpiEw7InIswr-3" target="MufeMbEMQpiEw7InIswr-47" edge="1">
          <mxGeometry width="50" height="50" relative="1" as="geometry">
            <mxPoint x="-320" y="730" as="sourcePoint" />
            <mxPoint x="-580" y="660" as="targetPoint" />
          </mxGeometry>
        </mxCell>
        <mxCell id="6AUojFRe7_ksaTG40HAu-5" value="API Gatway" style="text;html=1;align=center;verticalAlign=middle;whiteSpace=wrap;rounded=0;" parent="1" vertex="1">
          <mxGeometry x="-250" y="890" width="70" height="43.25" as="geometry" />
        </mxCell>
        <mxCell id="zAbW5wVqno82e7CFk5vz-34" value="" style="endArrow=classic;html=1;rounded=0;dashed=1;" edge="1" parent="1">
          <mxGeometry width="50" height="50" relative="1" as="geometry">
            <mxPoint x="453" y="837" as="sourcePoint" />
            <mxPoint x="521.5" y="837.5" as="targetPoint" />
          </mxGeometry>
        </mxCell>
      </root>
    </mxGraphModel>
  </diagram>
</mxfile>
